<svg width="32" height="32" viewBox="0 0 32 32" fill="none" xmlns="http://www.w3.org/2000/svg">
<path d="M7.99939 14.8582H7.98332C7.35224 14.8582 6.84015 15.3692 6.84015 16.0014C6.84015 16.6334 7.35112 17.1446 7.98332 17.1446H8.00028H23.9991H24.0152C24.6463 17.1446 25.1584 16.6336 25.1584 16.0014C25.1584 15.3694 24.6474 14.8582 24.0152 14.8582H23.9982H7.99939Z" fill="black"/>
<path d="M17.143 8.00058V7.98451C17.143 7.35343 16.632 6.84134 15.9998 6.84134C15.3678 6.84134 14.8566 7.35231 14.8566 7.98451V8.00147V8.00058V24.0006V24.0166C14.8566 24.6477 15.3676 25.1598 15.9998 25.1598C16.6318 25.1598 17.143 24.6488 17.143 24.0166V23.9997V24.0006V8.00058Z" fill="black"/>
<path d="M16 0C7.17651 0 0 7.17766 0 16C0 24.8223 7.17766 32 16 32C24.8235 32 32 24.8223 32 16C32 7.17766 24.8223 0 16 0ZM16 2.28611C23.5885 2.28611 29.7153 8.4134 29.7153 16.0014C29.7153 23.5893 23.5891 29.7166 16 29.7166C8.41146 29.7166 2.28474 23.5905 2.28474 16.0014C2.28474 8.41283 8.41089 2.28611 16 2.28611Z" fill="black"/>
</svg>
